<svg width="25" height="24" viewBox="0 0 25 24" fill="none" xmlns="http://www.w3.org/2000/svg">
<path fill-rule="evenodd" clip-rule="evenodd" d="M12.7256 0C19.353 0 24.7256 5.37259 24.7256 12C24.7256 18.6274 19.353 24 12.7256 24C6.09818 24 0.725586 18.6274 0.725586 12C0.725586 5.37259 6.09818 0 12.7256 0Z" fill="url(#paint0_linear_2001_33384)"/>
<path d="M14.2851 23.8993V14.6303H16.8982L17.2446 11.3681H14.2851L14.2895 9.73515C14.2895 8.88428 14.3703 8.42858 15.5925 8.42858H17.2263V5.16577H14.6126C11.4731 5.16577 10.3682 6.74824 10.3682 9.40984V11.3683H8.41113V14.6309H10.3682V23.7679C11.1306 23.9198 11.9189 24.0001 12.7259 24.0001C13.2473 24.0001 13.7681 23.9664 14.2851 23.8993Z" fill="white"/>
<defs>
<linearGradient id="paint0_linear_2001_33384" x1="12.7256" y1="-0.218652" x2="12.7256" y2="25.0234" gradientUnits="userSpaceOnUse">
<stop stop-color="#00B2FF"/>
<stop offset="1" stop-color="#006AFF"/>
</linearGradient>
</defs>
</svg>
