<svg width="25" height="24" viewBox="0 0 25 24" fill="none" xmlns="http://www.w3.org/2000/svg">
<g clip-path="url(#clip0_2001_33388)">
<path d="M8.7272 12C8.7272 9.79094 10.5175 7.99968 12.7266 7.99968C14.9356 7.99968 16.7269 9.79094 16.7269 12C16.7269 14.2091 14.9356 16.0003 12.7266 16.0003C10.5175 16.0003 8.7272 14.2091 8.7272 12ZM6.56471 12C6.56471 15.4032 9.32336 18.1619 12.7266 18.1619C16.1298 18.1619 18.8884 15.4032 18.8884 12C18.8884 8.5968 16.1298 5.83814 12.7266 5.83814C9.32336 5.83814 6.56471 8.5968 6.56471 12ZM17.6924 5.59382C17.6922 5.87863 17.7766 6.15707 17.9347 6.39394C18.0929 6.63081 18.3177 6.81547 18.5808 6.92457C18.8438 7.03366 19.1334 7.06229 19.4127 7.00684C19.6921 6.95139 19.9487 6.81435 20.1502 6.61304C20.3516 6.41173 20.4889 6.15521 20.5446 5.8759C20.6002 5.59658 20.5718 5.30704 20.463 5.04387C20.3541 4.7807 20.1696 4.55573 19.9329 4.3974C19.6961 4.23908 19.4177 4.15451 19.1329 4.1544H19.1324C18.7506 4.15458 18.3845 4.30627 18.1145 4.57616C17.8445 4.84605 17.6927 5.21207 17.6924 5.59382ZM7.87856 21.7677C6.70861 21.7144 6.07271 21.5196 5.65011 21.3549C5.08986 21.1368 4.69011 20.877 4.26983 20.4573C3.84954 20.0376 3.58938 19.6382 3.37223 19.078C3.20749 18.6556 3.01261 18.0195 2.95943 16.8495C2.90125 15.5846 2.88963 15.2047 2.88963 12.0001C2.88963 8.79552 2.90221 8.41661 2.95943 7.15066C3.01271 5.9807 3.20903 5.34586 3.37223 4.92221C3.59034 4.36195 3.85011 3.96221 4.26983 3.54192C4.68954 3.12163 5.0889 2.86147 5.65011 2.64432C6.07251 2.47958 6.70861 2.2847 7.87856 2.23152C9.14346 2.17334 9.52343 2.16173 12.7266 2.16173C15.9297 2.16173 16.3101 2.1743 17.576 2.23152C18.746 2.2848 19.3808 2.48112 19.8044 2.64432C20.3647 2.86147 20.7645 3.12221 21.1847 3.54192C21.605 3.96163 21.8642 4.36195 22.0823 4.92221C22.2471 5.34461 22.442 5.9807 22.4951 7.15066C22.5533 8.41661 22.5649 8.79552 22.5649 12.0001C22.5649 15.2047 22.5533 15.5836 22.4951 16.8495C22.4419 18.0195 22.246 18.6554 22.0823 19.078C21.8642 19.6382 21.6045 20.038 21.1847 20.4573C20.765 20.8766 20.3647 21.1368 19.8044 21.3549C19.382 21.5196 18.746 21.7145 17.576 21.7677C16.3111 21.8259 15.9311 21.8375 12.7266 21.8375C9.52199 21.8375 9.14307 21.8259 7.87856 21.7677ZM7.7792 0.072672C6.50173 0.130848 5.6288 0.333408 4.86647 0.630048C4.07696 0.936384 3.40861 1.34736 2.74074 2.01418C2.07287 2.68099 1.66295 3.3504 1.35661 4.1399C1.05997 4.90272 0.85741 5.77517 0.799234 7.05264C0.740099 8.33213 0.726562 8.74118 0.726562 12C0.726562 15.2588 0.740099 15.6679 0.799234 16.9474C0.85741 18.2249 1.05997 19.0973 1.35661 19.8601C1.66295 20.6491 2.07296 21.3193 2.74074 21.9858C3.40851 22.6524 4.07696 23.0628 4.86647 23.37C5.63024 23.6666 6.50173 23.8692 7.7792 23.9273C9.05936 23.9855 9.46775 24 12.7266 24C15.9854 24 16.3944 23.9865 17.6739 23.9273C18.9515 23.8692 19.8238 23.6666 20.5867 23.37C21.3757 23.0628 22.0445 22.6526 22.7124 21.9858C23.3803 21.319 23.7893 20.6491 24.0965 19.8601C24.3932 19.0973 24.5967 18.2248 24.6539 16.9474C24.7121 15.6669 24.7256 15.2588 24.7256 12C24.7256 8.74118 24.7121 8.33213 24.6539 7.05264C24.5957 5.77507 24.3932 4.90224 24.0965 4.1399C23.7893 3.35088 23.3792 2.68205 22.7124 2.01418C22.0456 1.3463 21.3757 0.936384 20.5876 0.630048C19.8238 0.333408 18.9514 0.129888 17.6749 0.072672C16.3954 0.014496 15.9863 0 12.7275 0C9.46871 0 9.05936 0.013536 7.7792 0.072672Z" fill="url(#paint0_radial_2001_33388)"/>
<path d="M8.7272 12C8.7272 9.79094 10.5175 7.99968 12.7266 7.99968C14.9356 7.99968 16.7269 9.79094 16.7269 12C16.7269 14.2091 14.9356 16.0003 12.7266 16.0003C10.5175 16.0003 8.7272 14.2091 8.7272 12ZM6.56471 12C6.56471 15.4032 9.32336 18.1619 12.7266 18.1619C16.1298 18.1619 18.8884 15.4032 18.8884 12C18.8884 8.5968 16.1298 5.83814 12.7266 5.83814C9.32336 5.83814 6.56471 8.5968 6.56471 12ZM17.6924 5.59382C17.6922 5.87863 17.7766 6.15707 17.9347 6.39394C18.0929 6.63081 18.3177 6.81547 18.5808 6.92457C18.8438 7.03366 19.1334 7.06229 19.4127 7.00684C19.6921 6.95139 19.9487 6.81435 20.1502 6.61304C20.3516 6.41173 20.4889 6.15521 20.5446 5.8759C20.6002 5.59658 20.5718 5.30704 20.463 5.04387C20.3541 4.7807 20.1696 4.55573 19.9329 4.3974C19.6961 4.23908 19.4177 4.15451 19.1329 4.1544H19.1324C18.7506 4.15458 18.3845 4.30627 18.1145 4.57616C17.8445 4.84605 17.6927 5.21207 17.6924 5.59382ZM7.87856 21.7677C6.70861 21.7144 6.07271 21.5196 5.65011 21.3549C5.08986 21.1368 4.69011 20.877 4.26983 20.4573C3.84954 20.0376 3.58938 19.6382 3.37223 19.078C3.20749 18.6556 3.01261 18.0195 2.95943 16.8495C2.90125 15.5846 2.88963 15.2047 2.88963 12.0001C2.88963 8.79552 2.90221 8.41661 2.95943 7.15066C3.01271 5.9807 3.20903 5.34586 3.37223 4.92221C3.59034 4.36195 3.85011 3.96221 4.26983 3.54192C4.68954 3.12163 5.0889 2.86147 5.65011 2.64432C6.07251 2.47958 6.70861 2.2847 7.87856 2.23152C9.14346 2.17334 9.52343 2.16173 12.7266 2.16173C15.9297 2.16173 16.3101 2.1743 17.576 2.23152C18.746 2.2848 19.3808 2.48112 19.8044 2.64432C20.3647 2.86147 20.7645 3.12221 21.1847 3.54192C21.605 3.96163 21.8642 4.36195 22.0823 4.92221C22.2471 5.34461 22.442 5.9807 22.4951 7.15066C22.5533 8.41661 22.5649 8.79552 22.5649 12.0001C22.5649 15.2047 22.5533 15.5836 22.4951 16.8495C22.4419 18.0195 22.246 18.6554 22.0823 19.078C21.8642 19.6382 21.6045 20.038 21.1847 20.4573C20.765 20.8766 20.3647 21.1368 19.8044 21.3549C19.382 21.5196 18.746 21.7145 17.576 21.7677C16.3111 21.8259 15.9311 21.8375 12.7266 21.8375C9.52199 21.8375 9.14307 21.8259 7.87856 21.7677ZM7.7792 0.072672C6.50173 0.130848 5.6288 0.333408 4.86647 0.630048C4.07696 0.936384 3.40861 1.34736 2.74074 2.01418C2.07287 2.68099 1.66295 3.3504 1.35661 4.1399C1.05997 4.90272 0.85741 5.77517 0.799234 7.05264C0.740099 8.33213 0.726562 8.74118 0.726562 12C0.726562 15.2588 0.740099 15.6679 0.799234 16.9474C0.85741 18.2249 1.05997 19.0973 1.35661 19.8601C1.66295 20.6491 2.07296 21.3193 2.74074 21.9858C3.40851 22.6524 4.07696 23.0628 4.86647 23.37C5.63024 23.6666 6.50173 23.8692 7.7792 23.9273C9.05936 23.9855 9.46775 24 12.7266 24C15.9854 24 16.3944 23.9865 17.6739 23.9273C18.9515 23.8692 19.8238 23.6666 20.5867 23.37C21.3757 23.0628 22.0445 22.6526 22.7124 21.9858C23.3803 21.319 23.7893 20.6491 24.0965 19.8601C24.3932 19.0973 24.5967 18.2248 24.6539 16.9474C24.7121 15.6669 24.7256 15.2588 24.7256 12C24.7256 8.74118 24.7121 8.33213 24.6539 7.05264C24.5957 5.77507 24.3932 4.90224 24.0965 4.1399C23.7893 3.35088 23.3792 2.68205 22.7124 2.01418C22.0456 1.3463 21.3757 0.936384 20.5876 0.630048C19.8238 0.333408 18.9514 0.129888 17.6749 0.072672C16.3954 0.014496 15.9863 0 12.7275 0C9.46871 0 9.05936 0.013536 7.7792 0.072672Z" fill="url(#paint1_radial_2001_33388)"/>
</g>
<defs>
<radialGradient id="paint0_radial_2001_33388" cx="0" cy="0" r="1" gradientUnits="userSpaceOnUse" gradientTransform="translate(3.91511 24.1134) scale(31.33 31.33)">
<stop offset="0.09" stop-color="#FA8F21"/>
<stop offset="0.78" stop-color="#D82D7E"/>
</radialGradient>
<radialGradient id="paint1_radial_2001_33388" cx="0" cy="0" r="1" gradientUnits="userSpaceOnUse" gradientTransform="translate(15.2815 25.1886) scale(24.6924)">
<stop offset="0.64" stop-color="#8C3AAA" stop-opacity="0"/>
<stop offset="1" stop-color="#8C3AAA"/>
</radialGradient>
<clipPath id="clip0_2001_33388">
<rect width="24" height="24" fill="white" transform="translate(0.725586)"/>
</clipPath>
</defs>
</svg>
